PathFileType	4	(X/Y/Z)	/Users/niels/Desktop/University/Third Semester/Perception and Action/Exam/Gymnastics Motion Tracking/Code for Gym Tracking/Analyzed Data/Webcam_Backflip/id2000_2_trajectory_Sports2D/id2000_2_trajectory_Sports2D_px_person00.trc
DataRate	CameraRate	NumFrames	NumMarkers	Units	OrigDataRate	OrigDataStartFrame	OrigNumFrames
29.8876404494382	29.8876404494382	7	22	m	29.8876404494382	0	267
Frame#	Time	Hip			RHip			RKnee			RAnkle			RBigToe			RSmallToe			RHeel			LHip			LKnee			LAnkle			LBigToe			LSmallToe			LHeel			Neck			Head			Nose			RShoulder			RElbow			RWrist			LShoulder			LElbow			LWrist		
		X1	Y1	Z1	X2	Y2	Z2	X3	Y3	Z3	X4	Y4	Z4	X5	Y5	Z5	X6	Y6	Z6	X7	Y7	Z7	X8	Y8	Z8	X9	Y9	Z9	X10	Y10	Z10	X11	Y11	Z11	X12	Y12	Z12	X13	Y13	Z13	X14	Y14	Z14	X15	Y15	Z15	X16	Y16	Z16	X17	Y17	Z17	X18	Y18	Z18	X19	Y19	Z19	X20	Y20	Z20	X21	Y21	Z21	X22	Y22	Z22
0	0.0	1.0049538948634313	-0.4542948531264225	0.0	1.0390404744369222	-0.4621740636248575	0.0	1.1175950720144194	-0.870945358877397	0.0	1.1202107932501004	-1.0648063757540913	0.0	1.2222988874038343	-1.072651593600234	0.0	1.1890648073720542	-1.0900472713932918	0.0	1.132487916174435	-1.0271856756910305	0.0	0.9473649691212856	-0.4621732722022089	0.0	0.9996046201607404	-0.8525801666991529	0.0	0.9812669511089737	-1.0621954600307701	0.0	1.1070553248719097	-1.0569412014016755	0.0	1.0048649217353527	-1.0543279889964956	0.0	0.9653187164428411	-1.0857536626728517	0.0	1.038991565540473	-0.07426737515336754	0.0	1.2276477984894874	-0.10049240853322879	0.0	1.1804697472932701	-0.011442115493897067	0.0	1.0861098349311253	-0.011461866458062154	0.0	1.1437357047570746	-0.262994734901977	0.0	1.3087905983042107	-0.44640775698337826	0.0	0.9682418532187861	-0.0664599355983469	0.0	0.9655447776895881	-0.3075381194409019	0.0	1.0913517362150351	-0.469988343821079	0.0
1	0.033458646616541354	1.0043099907057023	-0.4579597769611035	0.0	1.0345085803926155	-0.4653880897925786	0.0	1.119409699365938	-0.8736773648118552	0.0	1.1138788466065146	-1.0682855316704996	0.0	1.2231541989050896	-1.0781657230739095	0.0	1.1931794659888997	-1.09588110999081	0.0	1.1132396947194123	-1.0356762300068014	0.0	0.9506218417536464	-0.4670246392922286	0.0	0.9967428809484523	-0.8519256152829107	0.0	0.9767493047502849	-1.063862031493369	0.0	1.117988480018891	-1.0585615596448665	0.0	1.0534711025341217	-1.0556537729728717	0.0	0.9622101998182746	-1.0867251389614934	0.0	1.039217230379472	-0.07013097861385857	0.0	1.223362225929628	-0.10395369950478048	0.0	1.1774775557935306	-0.011387108079369218	0.0	1.076184819035949	-0.01126902299987675	0.0	1.1283655382430975	-0.2605364398096707	0.0	1.2960318070683035	-0.45599124562950966	0.0	0.9752629458143403	-0.06195207268461139	0.0	0.9773215002778496	-0.31180632002872216	0.0	1.0872087636703904	-0.4729293187549934	0.0
2	0.06691729323308271	1.003740889094279	-0.4608365980848756	0.0	1.0306504067028666	-0.46780096085170453	0.0	1.1203240989773842	-0.8762304787897549	0.0	1.106217701701166	-1.0714663259592672	0.0	1.2236744845078507	-1.0833181709504016	0.0	1.196261379788065	-1.1009613568729795	0.0	1.093910867322669	-1.0442116614155244	0.0	0.9533063281560434	-0.47111555012836054	0.0	0.9944281244302557	-0.8512900327081292	0.0	0.9730521901244502	-1.0653455438045558	0.0	1.12572065679137	-1.0601855717389381	0.0	1.0927596277088027	-1.0571103795889158	0.0	0.9592494604471468	-1.0875889610616694	0.0	1.0396626536859506	-0.0651273824621556	0.0	1.21796040492867	-0.10601051110478416	0.0	1.1743841348263788	-0.011376763628339634	0.0	1.0671821966499593	-0.011283200335638623	0.0	1.1135847679371793	-0.25803411849662766	0.0	1.2814934249370649	-0.4660005696059839	0.0	0.9809036658470225	-0.057738446340257495	0.0	0.9863336829457869	-0.3152459235433622	0.0	1.083087975353596	-0.4758754607022931	0.0
3	0.10037593984962406	1.0032666333783387	-0.4625040256515111	0.0	1.0277857804556205	-0.4691499483977586	0.0	1.1191617770259024	-0.8780342370696067	0.0	1.096427113658525	-1.0740702163468303	0.0	1.2231589632921298	-1.0874841525486036	0.0	1.1974647110629226	-1.1048659981436932	0.0	1.074496418669459	-1.0527748018710588	0.0	0.9551936294777326	-0.4739980048130235	0.0	0.993350149914856	-0.8504893328180789	0.0	0.9713350268789048	-1.0662396624121333	0.0	1.1296993649995177	-1.0617519657310737	0.0	1.1190813361074838	-1.0587389641860532	0.0	0.956757169396226	-1.0879664652368926	0.0	1.0403670959761055	-0.05912268748095408	0.0	1.2106304799424095	-0.10551302708654482	0.0	1.171096481780378	-0.011317564080358665	0.0	1.059685574031043	-0.011633385294333743	0.0	1.099914588550731	-0.2557985059776405	0.0	1.2639262409285037	-0.4765449655736828	0.0	0.9847088450921218	-0.0538996461218019	0.0	0.9907925698848438	-0.3171225259915598	0.0	1.0791391811369844	-0.47883915080814266	0.0
4	0.13383458646616542	1.0027648716587076	-0.46296599183542225	0.0	1.0257688288202564	-0.46985681595336176	0.0	1.1146917848241775	-0.8783860164040326	0.0	1.0846174044230654	-1.0758665295133758	0.0	1.221028371955098	-1.0900224765363355	0.0	1.1962243516477487	-1.1076353714039602	0.0	1.0551750794418087	-1.0612330150122522	0.0	0.9564635843486866	-0.475653708185565	0.0	0.9942419060485516	-0.8491701199333606	0.0	0.9732724670553784	-1.0660256620135429	0.0	1.1321225296921256	-1.063229071546027	0.0	1.134363314715026	-1.0604591232874714	0.0	0.9553378479830569	-1.087358739836135	0.0	1.0412254959885412	-0.052465998852245274	0.0	1.2010793784443723	-0.10167256473710785	0.0	1.1676081693847922	-0.011094326110174937	0.0	1.0538184969324291	-0.012352303600925802	0.0	1.087723519860611	-0.25439398054955953	0.0	1.243036068968186	-0.4872367966527392	0.0	0.9871901667533413	-0.0502176280874415	0.0	0.9905113607691015	-0.3168650413053356	0.0	1.075683885570459	-0.4818249689088651	0.0
5	0.16729323308270677	1.0020619534871942	-0.4625984207627066	0.0	1.024036350585715	-0.4707330351668129	0.0	1.1061472963562546	-0.8769017534957405	0.0	1.0716581741288809	-1.0767274945567882	0.0	1.2173826759533408	-1.0906375826333516	0.0	1.1921186791529355	-1.10962913019612	0.0	1.0364039042579092	-1.0692843962965293	0.0	0.9576180704663856	-0.4764284874683421	0.0	0.9976861144684163	-0.8471163260054402	0.0	0.9806931937818064	-1.0643406707925938	0.0	1.1360328147553262	-1.0646069496905104	0.0	1.1426782218790281	-1.062061285073239	0.0	0.9558971966882809	-1.085499975939949	0.0	1.042064991738927	-0.04575131514281012	0.0	1.1896522579087643	-0.09421431970779856	0.0	1.1640522426950026	-0.01069185660385216	0.0	1.0492998841525678	-0.013412367435341733	0.0	1.0770719058865004	-0.2542264267219616	0.0	1.2193203544356381	-0.49730730905858844	0.0	0.9893416467985321	-0.04653075075156957	0.0	0.9869733009605749	-0.3143149670958993	0.0	1.0732469736399377	-0.48482211181971085	0.0
6	0.20075187969924813	1.0011091975472988	-0.4619422417055541	0.0	1.0217928010963617	-0.4723729900694633	0.0	1.093699873032053	-0.873801738306443	0.0	1.0585334790394816	-1.0766831337590057	0.0	1.2129943047823328	-1.0894026698170565	0.0	1.1848143056830769	-1.1112590354664906	0.0	1.018971885252987	-1.0764374049790353	0.0	0.9592659805568843	-0.4767015105134367	0.0	1.0038939796302968	-0.8445897888253002	0.0	0.9946367151965063	-1.0611505235730354	0.0	1.1431997844304738	-1.0657125745390201	0.0	1.1476656171946342	-1.0632682896537047	0.0	0.959203418688599	-1.0825294596425892	0.0	1.0426025281979576	-0.040006153446243795	0.0	1.177266032827703	-0.0836966909616261	0.0	1.1606528247538284	-0.010176139073320113	0.0	1.0456433084608143	-0.01471419778604087	0.0	1.0676931593075418	-0.2552430168648901	0.0	1.1937572897945943	-0.5060531849926688	0.0	0.992017588439014	-0.043128156130980415	0.0	0.9826641002144698	-0.3099532698197519	0.0	1.0724834265172272	-0.48779426554361577	0.0
